<svg viewBox="0 0 14 14" xmlns="http://www.w3.org/2000/svg">
  <title>Email</title>
  <g id="Symbols" stroke="none" stroke-width="1" fill-rule="evenodd">
    <g
      id="Social-icons-profile"
      transform="translate(-157.000000, -9.000000)"
      fill-rule="nonzero"
    >
      <path
        d="M164,9 C160.131399,9 157,12.1307782 157,16 C157,19.8685726 160.130778,23 164,23 C165.493851,23 166.954677,22.5179597 168.15179,21.6361573 C168.30706,21.5217863 168.333085,21.2995927 168.210923,21.1503629 L168.067706,20.9754194 C167.954294,20.8368589 167.751774,20.8093669 167.607427,20.9153266 C166.566573,21.6792581 165.297653,22.0967742 164,22.0967742 C160.630601,22.0967742 157.903226,19.3699637 157.903226,16 C157.903226,12.6305444 160.630036,9.90322581 164,9.90322581 C167.343206,9.90322581 170.096774,12.1619677 170.096774,15.5483871 C170.096774,17.6052863 168.605915,18.6035766 166.820746,18.6035766 C166.263738,18.6035766 166.151935,18.2982863 166.270258,17.647625 L167.17546,13.0165887 C167.216359,12.8074073 167.056177,12.6129032 166.843044,12.6129032 L166.492452,12.6129032 C166.330223,12.6129035 166.190774,12.7279332 166.159923,12.8872016 C166.095173,13.2215645 166.079198,13.2672339 166.050944,13.6111089 C165.719883,12.8468105 164.960327,12.39675 163.979875,12.39675 C162.059278,12.39675 160.220875,14.1735645 160.220875,16.8289637 C160.220875,18.5673065 161.178153,19.6050847 162.781605,19.6050847 C163.902988,19.6050847 164.774375,18.9198185 165.226891,18.2789798 C165.19271,19.0632621 165.719573,19.4704758 166.524573,19.4704758 C169.562996,19.4704758 171,17.855254 171,15.5483871 C171,11.7044274 167.891294,9 164,9 Z M162.929677,18.6709234 C161.894327,18.6709234 161.27621,17.9622298 161.27621,16.7751089 C161.27621,14.6669234 162.709093,13.3444032 164.020238,13.3444032 C165.117008,13.3444032 165.660214,14.1287984 165.660214,15.1998266 C165.660214,16.8406774 164.577218,18.6709234 162.929677,18.6709234 Z"
        id="Shape"
      ></path>
    </g>
  </g>
</svg>
