<?xml version="1.0" encoding="UTF-8"?>
<svg width="20px" height="21px" viewBox="0 0 20 21" version="1.1" xmlns="http://www.w3.org/2000/svg" xmlns:xlink="http://www.w3.org/1999/xlink">
    <title>Shape</title>
    <g id="Partners" stroke="none" stroke-width="1" fill="none" fill-rule="evenodd">
        <g id="Charities" transform="translate(-1417.000000, -2417.000000)" fill="#697179" fill-rule="nonzero">
            <g id="Footer" transform="translate(0.000000, 2307.000000)">
                <path d="M1427,118.11875 C1425.68499,118.119243 1424.61931,119.185583 1424.61964,120.500595 C1424.61997,121.815607 1425.68618,122.881414 1427.00119,122.88125 C1428.3162,122.881086 1429.38214,121.815012 1429.38214,120.5 C1429.38116,119.184932 1428.31507,118.119242 1427,118.11875 L1427,118.11875 Z M1432.56741,116.288393 C1432.32237,115.66741 1431.8308,115.17584 1431.20982,114.930804 C1430.27232,114.560714 1428.04018,114.64375 1427,114.64375 C1425.95982,114.64375 1423.72991,114.557589 1422.78973,114.930804 C1422.16875,115.17584 1421.67718,115.66741 1421.43214,116.288393 C1421.0625,117.225893 1421.14509,119.460268 1421.14509,120.499554 C1421.14509,121.538839 1421.0625,123.770536 1421.43393,124.711161 C1421.67897,125.332143 1422.17054,125.823713 1422.79152,126.06875 C1423.72902,126.438839 1425.96116,126.355804 1427.00179,126.355804 C1428.04241,126.355804 1430.27143,126.441964 1431.21161,126.06875 C1431.83259,125.823713 1432.32416,125.332143 1432.5692,124.711161 C1432.94196,123.773661 1432.85625,121.539286 1432.85625,120.5 C1432.85625,119.460714 1432.94196,117.229464 1432.5692,116.288839 L1432.56741,116.288393 Z M1427,124.160717 C1424.97824,124.160717 1423.33929,122.521757 1423.33929,120.5 C1423.33929,118.478243 1424.97824,116.839286 1427,116.839286 C1429.02176,116.839286 1430.66072,118.478243 1430.66072,120.5 C1430.6619,121.471245 1430.2766,122.403052 1429.58983,123.089826 C1428.90305,123.776601 1427.97125,124.161901 1427,124.160717 L1427,124.160717 Z M1430.81161,117.540179 C1430.46597,117.540359 1430.15426,117.33229 1430.02187,117.013013 C1429.88947,116.693736 1429.96247,116.326142 1430.20681,116.081675 C1430.45115,115.837207 1430.8187,115.764021 1431.13805,115.89625 C1431.45739,116.028478 1431.66563,116.340075 1431.66563,116.685714 C1431.66657,116.9124 1431.57722,117.130132 1431.4173,117.290801 C1431.25739,117.45147 1431.04008,117.541848 1430.81339,117.541964 L1430.81161,117.540179 Z M1434.85714,110.5 L1419.14286,110.5 C1417.95939,110.5 1417,111.45939 1417,112.642857 L1417,128.357143 C1417,129.54061 1417.95939,130.5 1419.14286,130.5 L1434.85714,130.5 C1436.04061,130.5 1437,129.54061 1437,128.357143 L1437,112.642857 C1437,111.45939 1436.04061,110.5 1434.85714,110.5 L1434.85714,110.5 Z M1434.09286,123.446429 C1434.03527,124.590625 1433.77411,125.604464 1432.93884,126.4375 C1432.10357,127.270536 1431.09063,127.537054 1429.94777,127.591518 C1428.76875,127.658036 1425.23393,127.658036 1424.05491,127.591518 C1422.91071,127.533929 1421.90045,127.272321 1421.06384,126.4375 C1420.22723,125.602679 1419.96429,124.588393 1419.90982,123.446429 C1419.8433,122.266964 1419.8433,118.731696 1419.90982,117.553571 C1419.96741,116.409375 1420.22545,115.395536 1421.06384,114.5625 C1421.90223,113.729464 1422.91518,113.466071 1424.05491,113.411607 C1425.23393,113.345089 1428.76875,113.345089 1429.94777,113.411607 C1431.09196,113.469196 1432.10536,113.730804 1432.93884,114.565625 C1433.77232,115.400446 1434.03839,116.414732 1434.09286,117.558929 C1434.15937,118.733929 1434.15937,122.266071 1434.09286,123.446429 Z" id="Shape"></path>
            </g>
        </g>
    </g>
</svg>